<svg width="160" height="160" viewBox="0 0 160 160" fill="none" xmlns="http://www.w3.org/2000/svg">
    <style>
        path { fill: black; }

        @media (prefers-color-scheme: dark) {
            html[data-color-mode="auto"] path {
                fill: white;
            }
        }

        html[data-color-mode="dark"] path {
            fill: white;
        }
    </style>

    <path fill-rule="evenodd" clip-rule="evenodd"
          d="M146.936 95.8201C135.745 95.0107 124.651 93.1899 113.788 90.3801C103.546 87.8201 94.5434 84.9401 85.0811 83.4001C75.7188 81.4001 66.1564 80.9201 55.6138 79.6801C44.4501 78.6281 33.4429 76.3064 22.8056 72.7601C15.236 70.006 8.30681 65.7392 2.4406 60.2201C1.04652 65.6185 0.228423 71.1494 0 76.7201C3.3246 82.1773 7.36104 87.1678 12.003 91.5601C21.0452 99.4452 31.4518 105.613 42.7106 109.76C53.8708 113.71 65.4395 116.393 77.1991 117.76C89.1877 119.185 101.283 119.486 113.328 118.66C125.693 117.891 137.929 115.711 149.797 112.16C151.157 111.76 152.538 111.36 153.798 110.92C155.839 106.031 157.394 100.954 158.439 95.7601C154.609 95.9801 150.769 96.0001 146.936 95.8201Z"
    />
    <path fill-rule="evenodd" clip-rule="evenodd"
          d="M63.136 59.3C72.6584 60.14 81.0405 60.4 89.1425 62.5C97.3645 64.14 105.046 67.44 114.009 70.62C123.761 74.1937 133.857 76.7473 144.136 78.24C149.39 78.9898 154.693 79.3441 160 79.3C160 77.04 159.88 74.78 159.66 72.54C153.521 71.4444 147.494 69.7909 141.655 67.6C131.753 63.5559 122.567 57.9441 114.449 50.98C107.347 44.88 101.426 39.78 94.8039 37.98C88.1822 36.18 80.8004 37.4 71.7782 39.44C61.4278 42.1963 50.7026 43.2766 40.0103 42.64C30.811 41.936 21.8327 39.4713 13.5638 35.38C12.2634 37.38 11.0431 39.38 9.92285 41.38C16.6112 46.8975 24.2804 51.1044 32.5285 53.78C42.4747 56.8318 52.7501 58.685 63.136 59.3Z"
    />
    <path fill-rule="evenodd" clip-rule="evenodd"
          d="M80.0187 6.63341e-05C59.0658 -0.0269382 38.9442 8.19215 24.0049 22.8801C31.5066 25.9127 39.5004 27.5464 47.5907 27.7001C58.8335 28.1201 69.1961 24.6201 77.5982 21.3801C86.0002 18.1401 92.8419 16.2801 98.8834 18.4001C104.925 20.5201 110.146 26.0001 116.028 33.1201C121.909 40.2401 129.911 47.7201 140.034 52.6601C145.459 55.2559 151.146 57.2673 156.998 58.6601C152.335 41.8192 142.286 26.9676 128.385 16.3749C114.485 5.78217 97.4971 0.0309288 80.0187 6.63341e-05Z"
    />
    <path fill-rule="evenodd" clip-rule="evenodd"
          d="M80.0218 160C92.4464 160.011 104.702 157.124 115.815 151.569C126.928 146.014 136.592 137.944 144.038 128C134.026 130.928 123.767 132.937 113.39 134C99.6359 135.48 85.7761 135.714 71.9798 134.7C58.5312 133.835 45.2234 131.453 32.31 127.6C23.9843 124.908 16.048 121.136 8.7041 116.38C15.4137 129.517 25.6257 140.544 38.2117 148.242C50.7976 155.94 65.2674 160.009 80.0218 160Z"
    />
</svg>
